<?xml version="1.0" encoding="iso-8859-1"?>
<!-- Generator: Adobe Illustrator 19.0.0, SVG Export Plug-In . SVG Version: 6.00 Build 0)  -->
<svg version="1.1" id="Layer_1" xmlns="http://www.w3.org/2000/svg" xmlns:xlink="http://www.w3.org/1999/xlink" x="0px" y="0px"
	 viewBox="0 0 299 299" style="enable-background:new 0 0 299 299;" xml:space="preserve">
<g id="XMLID_1118_">
	<g>
		<g>
			<circle cx="248.535" cy="69.403" r="15.657"/>
			<path d="M257.529,206.705l-0.889,28.2c-0.162,5.143,3.959,9.418,9.131,9.418c4.909,0,8.965-3.901,9.121-8.843l1.009-32.039
				c-1.319,0.619-2.673,1.165-4.068,1.626C267.225,206.592,262.481,207.095,257.529,206.705z"/>
			<path d="M240.29,201.703c-4.278-2.159-8.456-4.971-12.405-8.421c-2.381-2.081-4.553-4.167-6.551-6.24
				c-0.357,1.142-0.494,2.348-0.385,3.55l4.196,46.352c0.456,5.043,4.926,8.732,9.916,8.27c5.023-0.454,8.725-4.895,8.27-9.916
				L240.29,201.703z"/>
			<path d="M295.866,151.706c-2.141-0.467-4.262,0.896-4.727,3.041c-4.453,20.518-12.56,33.305-23.445,36.978
				c-9.06,3.056-20.533-0.289-30.69-8.952c-13.71-11.694-19.561-23.811-21.851-30.089c-0.4-1.097-0.693-2.014-0.898-2.721
				c0.865-1.245,1.573-2.608,2.093-4.059l18.616-2.844c1.965-0.3,3.734-1.357,4.929-2.945l19.049-25.299l-13.838,29.222
				c-2.343,4.947-6.706,5.095-10.734,5.71l-0.445,12.214l-3.024,5.953c2.692,3.326,5.997,6.845,10.064,10.4
				c1.13,0.987,2.366,1.955,3.68,2.865l9.052-17.821l5.194,0.189l-0.733,23.271c2.525,0.319,5.042,0.17,7.437-0.622
				c4.165-1.378,7.932-4.727,11.162-9.81l0.383-12.174l0.081,0.003l2.14-58.748c0.23-6.324-4.709-11.637-11.033-11.868
				l-20.419-0.744c-6.324-0.23-11.637,4.709-11.868,11.033l-0.423,11.614l11.167-9.84l-17.183,22.821l-14.927,2.28
				c-3.105-4.911-8.571-8.141-14.734-8.141c-4.119,0-7.906,1.44-10.891,3.838l-16.424,9.912L161.92,79.971
				c-0.648-3.416-3.634-5.888-7.111-5.888H39.518c-3.477,0-6.462,2.472-7.111,5.888l-11.423,60.198C8.651,145.4,0,157.619,0,171.859
				v28.735c0,7.112,5.766,12.877,12.877,12.877H17.1v14.799c0,9.379,7.604,16.983,16.983,16.983c9.38,0,16.983-7.604,16.983-16.983
				v-14.799h92.195v14.799c0,9.379,7.604,16.983,16.983,16.983s16.983-7.604,16.983-16.983v-14.799h4.222
				c7.112,0,12.877-5.766,12.877-12.877v-28.735c0-6.654-1.89-12.867-5.161-18.131c2.973,2.345,6.718,3.744,10.772,3.744
				c2.635,0,5.336-0.612,7.799-1.85c2.685,7.338,9.199,20.483,24.108,33.201c10.75,9.169,25.264,14.864,38.39,10.435
				c13.875-4.682,23.522-19.091,28.672-42.825C299.374,154.288,298.012,152.171,295.866,151.706z M33.598,193.82
				c-8.908,0-16.033-7.242-16.033-16.033c0-8.855,7.179-16.033,16.033-16.033c8.815,0,15.967,7.115,16.03,15.916
				c0,0.039,0.003,0.078,0.003,0.117C49.631,186.642,42.453,193.82,33.598,193.82z M36.234,137.452l9.278-48.894h103.304
				l9.278,48.894H36.234z M160.73,193.82c-8.855,0-16.033-7.179-16.033-16.033c0-0.039,0.003-0.077,0.003-0.116
				c0.063-8.801,7.214-15.917,16.03-15.917c8.855,0,16.033,7.179,16.033,16.033C176.763,186.584,169.631,193.82,160.73,193.82z
				 M177.864,142.498l4.66-2.813c-0.058,2.79,0.542,5.428,1.65,7.777C182.275,145.575,180.16,143.905,177.864,142.498z
				 M199.939,149.522c-5.223,0-9.473-4.25-9.473-9.473c0-2.829,1.253-5.364,3.225-7.102c2.413-1.457,3.429-2.372,6.248-2.372
				c1.966,0,3.793,0.603,5.308,1.631l-2.482,0.379c-4.154,0.634-7.007,4.516-6.373,8.67c0.575,3.765,3.817,6.46,7.512,6.46
				c0.694,0,1.126-0.083,1.831-0.19C204.131,148.772,202.123,149.522,199.939,149.522z"/>
		</g>
	</g>
</g>
<g>
</g>
<g>
</g>
<g>
</g>
<g>
</g>
<g>
</g>
<g>
</g>
<g>
</g>
<g>
</g>
<g>
</g>
<g>
</g>
<g>
</g>
<g>
</g>
<g>
</g>
<g>
</g>
<g>
</g>
</svg>
